<svg width="43" height="43" viewBox="0 0 43 43" fill="none" xmlns="http://www.w3.org/2000/svg">
<path d="M31.1378 10.3255C31.1378 10.6656 31.0508 10.9981 30.8879 11.2809C30.725 11.5637 30.4934 11.7841 30.2225 11.9143C29.9515 12.0444 29.6534 12.0785 29.3658 12.0121C29.0781 11.9458 28.8139 11.782 28.6065 11.5415C28.3992 11.301 28.258 10.9945 28.2007 10.661C28.1435 10.3274 28.1729 9.98159 28.2851 9.66735C28.3974 9.35311 28.5874 9.08453 28.8312 8.89557C29.0751 8.7066 29.3618 8.60574 29.655 8.60574C30.0483 8.60574 30.4254 8.78693 30.7035 9.10944C30.9816 9.43194 31.1378 9.86936 31.1378 10.3255ZM20.9308 24.3927L13.5169 34.711C13.3912 34.8861 13.3305 35.1119 13.3482 35.3388C13.366 35.5657 13.4606 35.7752 13.6114 35.9212C13.7441 36.0512 13.9123 36.1221 14.0859 36.1212C14.1945 36.121 14.3018 36.0933 14.4001 36.0398C14.4984 35.9863 14.5854 35.9084 14.6549 35.8116L22.0688 25.4933C22.1862 25.3173 22.2402 25.0952 22.2194 24.874C22.1986 24.6527 22.1046 24.4494 21.9572 24.3068C21.8098 24.1643 21.6205 24.0936 21.429 24.1096C21.2376 24.1256 21.059 24.2271 20.9308 24.3927ZM43 12.905C43.0001 13.0466 42.97 13.1861 42.9125 13.3109C42.8549 13.4358 42.7716 13.5423 42.6701 13.6209L38.5517 16.8045V21.5036C38.5463 27.2029 36.5918 32.6669 33.117 36.6969C29.6423 40.7269 24.931 42.9937 20.017 43H0.740925C0.601287 42.9999 0.464513 42.9541 0.346349 42.8678C0.228185 42.7815 0.133436 42.6582 0.0730099 42.5122C0.0125843 42.3662 -0.0110609 42.2034 0.00479639 42.0425C0.0206537 41.8816 0.0753689 41.7292 0.162643 41.6027L17.7928 16.0435V12.0452C17.7913 9.14484 18.6928 6.34139 20.3313 4.15039C21.9699 1.95939 24.2354 0.528155 26.7112 0.11989C29.187 -0.288374 31.7067 0.353784 33.8069 1.92827C35.907 3.50276 37.4465 5.90371 38.1421 8.68958L42.6701 12.1892C42.7716 12.2678 42.8549 12.3742 42.9125 12.4991C42.97 12.624 43.0001 12.7634 43 12.905ZM40.9223 12.905L37.0893 9.94282C36.9387 9.82403 36.8301 9.64618 36.7835 9.44195C36.2394 7.01137 34.9498 4.89431 33.1563 3.48752C31.3628 2.08074 29.1885 1.48079 27.0409 1.80011C24.8933 2.11943 22.9199 3.3361 21.4904 5.22212C20.0608 7.10813 19.2734 9.53403 19.2756 12.0452V16.3444C19.2755 16.5399 19.2179 16.7294 19.1125 16.8819L2.28301 41.2803H20.017C24.5379 41.2746 28.8723 39.1892 32.0691 35.4815C35.2659 31.7739 37.064 26.747 37.0689 21.5036V16.3444C37.0688 16.2029 37.0989 16.0634 37.1565 15.9385C37.214 15.8137 37.2973 15.7072 37.3988 15.6286L40.9223 12.905Z" fill="#227F5E"/>
</svg>
