<svg width="43" height="43" viewBox="0 0 43 43" fill="none" xmlns="http://www.w3.org/2000/svg">
<path d="M41.4068 0.211148C40.936 0.00267882 40.4157 -0.053056 39.9141 0.0512218C39.4124 0.1555 38.9525 0.414943 38.5946 0.795671L38.5537 0.840462L34.3505 5.87721C30.5518 3.21599 26.0778 1.79461 21.5 1.79461C16.9221 1.79461 12.4481 3.21599 8.64944 5.87721L4.44619 0.840462L4.40534 0.795671C4.04503 0.419933 3.58593 0.163818 3.08599 0.05966C2.58605 -0.044498 2.0677 0.00797124 1.59637 0.210443C1.12503 0.412915 0.721858 0.756313 0.437739 1.19728C0.15362 1.63825 0.00129674 2.15702 0 2.68809V22.3961C0 33.7551 9.64488 43 21.5 43C33.355 43 42.9999 33.7574 42.9999 22.3961V2.68809C43.004 2.1563 42.8541 1.63558 42.57 1.19377C42.2858 0.751958 41.8805 0.409546 41.4068 0.211148ZM41.2799 22.3961C41.2799 32.4943 32.8691 40.7604 22.36 41.1882V35.3094L25.5484 31.9881C25.6316 31.9057 25.698 31.8068 25.7439 31.6971C25.7897 31.5875 25.8141 31.4695 25.8154 31.3499C25.8168 31.2303 25.7952 31.1117 25.7518 31.001C25.7085 30.8903 25.6443 30.7897 25.5631 30.7052C25.4818 30.6208 25.3852 30.5541 25.2788 30.5091C25.1724 30.4642 25.0585 30.4419 24.9437 30.4435C24.829 30.4451 24.7157 30.4707 24.6105 30.5187C24.5054 30.5666 24.4105 30.636 24.3315 30.7228L21.5 33.6723L18.6684 30.7228C18.5894 30.636 18.4946 30.5666 18.3894 30.5187C18.2843 30.4707 18.171 30.4451 18.0562 30.4435C17.9414 30.4419 17.8275 30.4642 17.7211 30.5091C17.6147 30.5541 17.5181 30.6208 17.4368 30.7052C17.3556 30.7897 17.2914 30.8903 17.2481 31.001C17.2047 31.1117 17.1831 31.2303 17.1845 31.3499C17.1859 31.4695 17.2102 31.5875 17.256 31.6971C17.3019 31.8068 17.3684 31.9057 17.4515 31.9881L20.64 35.3094V41.1904C10.1308 40.7604 1.72 32.4965 1.72 22.3961V2.68809C1.71778 2.51025 1.76733 2.33589 1.86213 2.18797C1.95692 2.04005 2.09252 1.92551 2.25105 1.85946C2.36055 1.81415 2.47722 1.79061 2.59505 1.79003C2.70158 1.78978 2.80711 1.81141 2.90561 1.85368C3.00411 1.89596 3.09365 1.95804 3.16909 2.03638L7.86469 7.66661C8.00671 7.83681 8.20514 7.94495 8.42035 7.96945C8.63556 7.99394 8.85173 7.93298 9.02568 7.79874C10.4805 6.68042 12.0728 5.7705 13.76 5.09337V11.6463C13.76 11.8839 13.8506 12.1117 14.0119 12.2797C14.1731 12.4477 14.3919 12.5421 14.62 12.5421C14.8481 12.5421 15.0668 12.4477 15.2281 12.2797C15.3894 12.1117 15.48 11.8839 15.48 11.6463V4.47973C17.1592 3.96892 18.892 3.67336 20.64 3.59959V11.6463C20.64 11.8839 20.7306 12.1117 20.8918 12.2797C21.0531 12.4477 21.2719 12.5421 21.5 12.5421C21.728 12.5421 21.9468 12.4477 22.1081 12.2797C22.2694 12.1117 22.36 11.8839 22.36 11.6463V3.60407C24.1077 3.67638 25.8405 3.97044 27.5199 4.47973V11.6463C27.5199 11.8839 27.6106 12.1117 27.7718 12.2797C27.9331 12.4477 28.1519 12.5421 28.3799 12.5421C28.608 12.5421 28.8268 12.4477 28.9881 12.2797C29.1493 12.1117 29.2399 11.8839 29.2399 11.6463V5.09337C30.9256 5.77087 32.5165 6.68077 33.9699 7.79874C34.1439 7.93298 34.3601 7.99394 34.5753 7.96945C34.7905 7.94495 34.9889 7.83681 35.1309 7.66661L39.8265 2.0431C39.9482 1.92231 40.1011 1.84128 40.2665 1.81005C40.4319 1.77882 40.6024 1.79874 40.757 1.86735C40.9116 1.93597 41.0435 2.05027 41.1365 2.19613C41.2294 2.342 41.2793 2.51303 41.2799 2.68809V22.3961ZM13.76 23.292C13.76 23.6463 13.6591 23.9927 13.4701 24.2873C13.2811 24.582 13.0125 24.8116 12.6982 24.9472C12.3839 25.0828 12.0381 25.1183 11.7044 25.0492C11.3708 24.98 11.0643 24.8094 10.8238 24.5588C10.5832 24.3083 10.4194 23.989 10.353 23.6415C10.2867 23.2939 10.3207 22.9337 10.4509 22.6063C10.5811 22.2789 10.8015 21.9991 11.0844 21.8023C11.3673 21.6054 11.6998 21.5003 12.04 21.5003C12.4961 21.5003 12.9336 21.6891 13.2562 22.0251C13.5788 22.3611 13.76 22.8168 13.76 23.292ZM32.6799 23.292C32.6799 23.6463 32.5791 23.9927 32.3901 24.2873C32.2011 24.582 31.9324 24.8116 31.6182 24.9472C31.3039 25.0828 30.958 25.1183 30.6244 25.0492C30.2907 24.98 29.9843 24.8094 29.7437 24.5588C29.5032 24.3083 29.3394 23.989 29.273 23.6415C29.2066 23.2939 29.2407 22.9337 29.3709 22.6063C29.5011 22.2789 29.7215 21.9991 30.0044 21.8023C30.2872 21.6054 30.6198 21.5003 30.9599 21.5003C31.4161 21.5003 31.8536 21.6891 32.1762 22.0251C32.4987 22.3611 32.6799 22.8168 32.6799 23.292Z" fill="#227F5E"/>
</svg>
