<svg width="43" height="43" viewBox="0 0 43 43" fill="none" xmlns="http://www.w3.org/2000/svg">
<path d="M15.9224 25.0868C15.9224 25.4411 15.8289 25.7874 15.6539 26.082C15.4789 26.3766 15.2301 26.6062 14.9391 26.7418C14.648 26.8773 14.3277 26.9128 14.0188 26.8437C13.7098 26.7746 13.426 26.604 13.2032 26.3535C12.9804 26.1029 12.8287 25.7838 12.7673 25.4363C12.7058 25.0888 12.7374 24.7286 12.8579 24.4013C12.9785 24.074 13.1826 23.7942 13.4446 23.5974C13.7065 23.4005 14.0145 23.2955 14.3295 23.2955C14.752 23.2955 15.1571 23.4842 15.4558 23.8201C15.7545 24.1561 15.9224 24.6117 15.9224 25.0868ZM28.6651 26.8781C28.9802 26.8781 29.2881 26.7731 29.5501 26.5762C29.812 26.3794 30.0162 26.0996 30.1367 25.7723C30.2573 25.445 30.2888 25.0848 30.2274 24.7373C30.1659 24.3898 30.0142 24.0707 29.7915 23.8201C29.5687 23.5696 29.2849 23.399 28.9759 23.3299C28.6669 23.2608 28.3466 23.2963 28.0556 23.4318C27.7645 23.5674 27.5158 23.797 27.3407 24.0916C27.1657 24.3862 27.0723 24.7325 27.0723 25.0868C27.0723 25.5619 27.2401 26.0175 27.5388 26.3535C27.8375 26.6894 28.2427 26.8781 28.6651 26.8781ZM41.5951 24.8383C41.2828 24.9999 40.9433 25.0846 40.5996 25.0868C40.2396 25.0858 39.8846 24.992 39.5619 24.8127C39.2392 24.6334 38.9573 24.3733 38.7379 24.0523L38.2222 23.3156V34.9391C38.2222 37.077 37.467 39.1273 36.1228 40.639C34.7786 42.1507 32.9554 43 31.0544 43H11.9402C10.0392 43 8.21606 42.1507 6.87183 40.639C5.52761 39.1273 4.77243 37.077 4.77243 34.9391V23.3156L4.26869 24.0478C4.04879 24.3696 3.76634 24.6305 3.44298 24.8105C3.11962 24.9906 2.7639 25.0851 2.40307 25.0868C2.05924 25.0849 1.71977 25.0002 1.40754 24.8383C0.916363 24.5958 0.513577 24.1719 0.265899 23.6368C0.0182216 23.1017 -0.0594851 22.4876 0.0456516 21.896L3.31497 2.19149C3.37502 1.83154 3.49987 1.48919 3.68185 1.18548C3.86382 0.881768 4.09909 0.623096 4.37319 0.425352C4.64729 0.227607 4.95444 0.0949653 5.27578 0.0355713C5.59712 -0.0238227 5.92587 -0.00871479 6.24183 0.0799675H6.27369L16.8343 3.59096H26.1604L36.7289 0.0978807H36.7608C37.0767 0.0091984 37.4055 -0.00590954 37.7268 0.0534844C38.0482 0.112878 38.3553 0.245521 38.6294 0.443265C38.9035 0.641009 39.1388 0.899682 39.3208 1.2034C39.5027 1.50711 39.6276 1.84945 39.6876 2.2094L42.957 21.9139C43.0585 22.5028 42.9791 23.113 42.7316 23.6444C42.4841 24.1758 42.0834 24.5968 41.5951 24.8383ZM15.3748 4.97475L5.83565 1.82203C5.77552 1.80696 5.71408 1.79945 5.65247 1.79963C5.46719 1.80021 5.28787 1.87341 5.14541 2.00665C5.00295 2.13989 4.90626 2.32482 4.87198 2.5296L1.60266 22.2341C1.56878 22.4316 1.59497 22.6361 1.67701 22.8148C1.75905 22.9934 1.89217 23.1359 2.05494 23.2191C2.21771 23.3024 2.40065 23.3216 2.57432 23.2737C2.74798 23.2258 2.90227 23.1136 3.01233 22.9551L15.3748 4.97475ZM36.6294 21.0003L25.8777 5.38228H17.117L6.36527 21.0003V34.9391C6.36527 36.6019 6.95264 38.1966 7.99814 39.3724C9.04365 40.5481 10.4617 41.2087 11.9402 41.2087H20.7009V37.1021L17.7482 33.7814C17.5987 33.6134 17.5148 33.3854 17.5148 33.1477C17.5148 32.9101 17.5987 32.6821 17.7482 32.5141C17.8976 32.346 18.1003 32.2516 18.3116 32.2516C18.523 32.2516 18.7257 32.346 18.8751 32.5141L21.4973 35.463L24.1196 32.5141C24.269 32.346 24.4717 32.2516 24.683 32.2516C24.8944 32.2516 25.097 32.346 25.2465 32.5141C25.3959 32.6821 25.4799 32.9101 25.4799 33.1477C25.4799 33.3854 25.3959 33.6134 25.2465 33.7814L22.2938 37.1021V41.2087H31.0544C32.533 41.2087 33.951 40.5481 34.9965 39.3724C36.042 38.1966 36.6294 36.6019 36.6294 34.9391V21.0003ZM41.392 22.2274L38.1227 2.52288C38.1029 2.404 38.0619 2.29085 38.0022 2.19026C37.9425 2.08967 37.8653 2.00373 37.7752 1.93761C37.6852 1.87149 37.5841 1.82657 37.4782 1.80555C37.3723 1.78453 37.2637 1.78785 37.159 1.81531L27.6198 4.97475L39.9863 22.9506C40.0971 23.107 40.2512 23.2173 40.4242 23.2637C40.5971 23.3102 40.7789 23.2902 40.9406 23.207C41.1023 23.1239 41.2345 22.9822 41.3163 22.8047C41.3981 22.6271 41.4248 22.4239 41.392 22.2274Z" fill="#227F5E"/>
</svg>
